<svg id="Layer_1" xmlns="http://www.w3.org/2000/svg" viewBox="0 0 1063.1 134.9"><style>.st0{opacity:0.16;} .st1{fill:#FFFFFF;} .st2{opacity:0.16;fill:#FFFFFF;}</style><g class="st0"><path class="st1" d="M511.4 121.1c0 .2.2.8 1 .8.7 0 1-.4 1-1 0-.8-.9-.9-1.2-.9h-.8v-1.7h.4c.2 0 1.1 0 1.1-.9 0-.4-.2-.8-.6-.8-.7 0-.7.6-.7.8h-2.2c0-2.1 1.8-2.8 3-2.8 1.7 0 2.8 1.2 2.8 2.4s-.9 1.7-1.2 1.9c1.7.6 1.7 1.8 1.7 2.1 0 1.5-1.5 2.8-3.3 2.8-1 0-2.2-.4-2.8-1.2-.4-.6-.5-1.2-.5-1.6h2.3zM520.1 117.6h.5c1.3 0 2.8 1 2.8 3s-1.6 3.4-3.4 3.4c-1.1 0-2.1-.4-2.7-1.2-.6-.6-.8-1.5-.8-2.2 0-.9.4-1.7.8-2.4l2.2-3.2h2.6l-2 2.6zm-.3 4.4c.7 0 1.2-.5 1.2-1.2 0-.6-.4-1.2-1.2-1.2-.7 0-1.2.6-1.2 1.2 0 .8.7 1.2 1.2 1.2zM524 118.1c0-2.6 2.1-3.4 3.3-3.4 1.1 0 3.3.7 3.3 3.4v2.5c0 2.5-1.9 3.4-3.3 3.4-1.3 0-3.3-.9-3.3-3.4v-2.5zm2.2 2.5c0 .5.2 1.3 1 1.3 1 0 1-1.1 1-1.3V118c0-.3 0-1.3-1-1.3-.9 0-1 .8-1 1.3v2.6zM531.7 117c0-1 .8-1.7 1.7-1.7 1 0 1.7.8 1.7 1.7 0 1-.8 1.7-1.7 1.7-1 0-1.7-.8-1.7-1.7zm2.4 0c0-.4-.3-.7-.7-.7s-.7.3-.7.7c0 .4.3.7.7.7s.7-.3.7-.7z"/></g><path class="st2" d="M531.5 8.8C241.9 8.8 7 35 7 67.4 7 98.6 223.6 124 497.4 126l4.2-13.3C236 111.2 25.3 89.6 25.3 63.1c0-27.4 226.5-49.7 506-49.7s506 22.2 506 49.7c0 27-219.4 49-492.6 49.7l-4.3 13.3C826 125.6 1056 99.5 1056 67.4 1056 35 821.2 8.8 531.5 8.8z"/></svg>