<svg id="Layer_1" xmlns="http://www.w3.org/2000/svg" viewBox="0 0 340.2 33"><style>.st0{fill:#FFFFFF;} .st1{fill:#ED1C24;}</style><path class="st0" d="M69 11v21.7h-4.9V17.4l-6.5 11-6.6-11v15.3h-4.9V11h6.3l5.2 8.8 5-8.8H69zm4.1 0H78v21.7h-4.9V11zM86 15.5h-5.9V11h16.6v4.5h-5.9v17.2H86V15.5zm12.5 16.9v-4.5c1 .2 3.5.6 6.4.6 2.5 0 3.8-.3 3.8-1.7 0-1.6-1.1-1.8-4.6-3.4-3.4-1.6-6-2.9-6-6.6 0-4.5 2.8-6.1 8.2-6.1 2.8 0 4.8.2 6 .4v4.5c-1.2-.1-3.5-.4-5.9-.4-2.9 0-3.5.3-3.5 1.5s1.6 1.8 4 2.9c3.6 1.6 6.5 3 6.5 7.1 0 4.3-2.7 6.3-8.5 6.3-2.2 0-4.4-.2-6.4-.6m17.9-7V11h4.9v14.2c0 2.5 1.5 3.3 3.8 3.3s3.8-.9 3.8-3.3V11h4.9v14.4c0 5.3-3.5 7.6-8.7 7.6-5.3 0-8.7-2.4-8.7-7.6M137.8 11h9.5c4.4 0 6.9 1.6 6.9 5.6 0 3.1-1.8 4.1-3.5 4.8 2 .6 4 1.7 4 5.3 0 3.8-2.3 6-7.1 6h-9.8V11zm8.8 8.8c2 0 2.7-1 2.7-2.5 0-1.7-.9-2.2-2.7-2.2h-3.9v4.7h3.9zm.3 8.8c2 0 2.8-.7 2.8-2.6 0-1.7-.7-2.4-2.5-2.4h-4.5v5h4.2zM157.7 11h4.9v21.7h-4.9V11zm8.4 21.4v-4.5c1 .2 3.5.6 6.4.6 2.5 0 3.8-.3 3.8-1.7 0-1.6-1.1-1.8-4.6-3.4-3.4-1.6-6-2.9-6-6.6 0-4.5 2.7-6.1 8.2-6.1 2.8 0 4.8.2 6 .4v4.5c-1.2-.1-3.5-.4-5.9-.4-2.9 0-3.5.3-3.5 1.5s1.6 1.8 4 2.9c3.6 1.6 6.5 3 6.5 7.1 0 4.3-2.7 6.3-8.5 6.3-2.3 0-4.4-.2-6.4-.6M201 11v21.7h-4.8v-8.6h-7.7v8.6h-4.9V11h4.9v8.6h7.7V11h4.8zm4 0h4.9v21.7H205V11zm38.6 0v21.7h-4.9V17.4l-6.5 11-6.6-11v15.3h-4.8V11h6.3l5.1 8.8 5-8.8h6.4zm3.4 10.8c0-7.8 3-11.2 9.3-11.2 6.4 0 9.3 3.4 9.3 11.2s-3 11.2-9.3 11.2c-6.4 0-9.3-3.4-9.3-11.2m13.6 0c0-4.4-.8-6.7-4.3-6.7s-4.3 2.2-4.3 6.7.8 6.7 4.3 6.7c3.6.1 4.3-2.2 4.3-6.7m11.7-6.3h-5.8V11h16.6v4.5h-5.9v17.2h-4.9V15.5zm11.6 6.3c0-7.8 3-11.2 9.3-11.2 6.4 0 9.3 3.4 9.3 11.2s-3 11.2-9.3 11.2c-6.4 0-9.3-3.4-9.3-11.2m13.6 0c0-4.4-.8-6.7-4.3-6.7s-4.3 2.2-4.3 6.7.8 6.7 4.3 6.7c3.6.1 4.3-2.2 4.3-6.7m8.4-10.8h8.8c4.6 0 7.6 1.7 7.6 7 0 3.4-1.7 5.5-4.5 6.2l5.3 8.5h-5.7l-4.6-7.8h-2.2v7.8h-4.9V11h.2zm8.5 9.7c2.2 0 2.9-1.1 2.9-2.8 0-1.7-.7-2.8-2.9-2.8h-3.6v5.5l3.6.1zm10.8 11.7v-4.5c1 .2 3.5.6 6.4.6 2.5 0 3.8-.3 3.8-1.7 0-1.6-1.1-1.8-4.6-3.4-3.4-1.6-6-2.9-6-6.6 0-4.5 2.8-6.1 8.2-6.1 2.8 0 4.8.2 6 .4v4.5c-1.2-.1-3.5-.4-5.9-.4-2.9 0-3.5.3-3.5 1.5s1.6 1.8 4 2.9c3.6 1.6 6.5 3 6.5 7.1 0 4.3-2.7 6.3-8.5 6.3-2.2 0-4.3-.2-6.4-.6"/><path class="st1" d="M12.4 10.8l6.2 10.7 6.2-10.7L18.6 0l-6.2 10.8zm18.7 10.7H18.6l6.2 10.8h12.5l-6.2-10.8zm-24.9 0h12.4l-6.2 10.8H0l6.2-10.8z"/></svg>