<svg id="Layer_1" xmlns="http://www.w3.org/2000/svg" viewBox="0 0 158.6 170"><path class="text" d="M22.1 120.4v21.1h-4.7v-14.8l-6.3 10.6-6.4-10.6v14.8H0v-21.1h6.1l5 8.6 4.8-8.6zM26.1 120.4h4.7v21h-4.7zM38.6 124.8h-5.7v-4.4H49v4.4h-5.7v16.7h-4.7zM50.7 141.2v-4.4c1 .2 3.3.6 6.2.6 2.4 0 3.6-.3 3.6-1.7 0-1.5-1-1.7-4.4-3.3-3.3-1.5-5.8-2.8-5.8-6.4 0-4.4 2.7-5.9 7.9-5.9 2.7 0 4.6.2 5.9.4v4.4c-1.2-.1-3.3-.4-5.7-.4-2.8 0-3.4.3-3.4 1.5s1.5 1.8 3.8 2.8c3.5 1.6 6.3 2.9 6.3 6.9 0 4.2-2.6 6.1-8.2 6.1-2.1 0-4.2-.3-6.2-.6M68 134.4v-13.9h4.7v13.7c0 2.4 1.4 3.2 3.7 3.2 2.2 0 3.7-.8 3.7-3.2v-13.7h4.7v13.9c0 5.1-3.3 7.4-8.4 7.4-5.1 0-8.4-2.4-8.4-7.4M88.8 120.4H98c4.3 0 6.7 1.6 6.7 5.4 0 3-1.7 4-3.3 4.6 1.9.6 3.9 1.6 3.9 5.1 0 3.7-2.2 5.9-6.9 5.9h-9.5v-21zm8.5 8.5c1.9 0 2.6-1 2.6-2.4 0-1.7-.8-2.1-2.6-2.1h-3.8v4.5h3.8zm.3 8.6c1.9 0 2.7-.7 2.7-2.5 0-1.6-.7-2.3-2.5-2.3h-4.3v4.8h4.1zM108 120.4h4.7v21H108zM116.2 141.2v-4.4c1 .2 3.3.6 6.2.6 2.4 0 3.6-.3 3.6-1.7 0-1.5-1-1.7-4.4-3.3-3.3-1.5-5.8-2.8-5.8-6.4 0-4.4 2.7-5.9 7.9-5.9 2.7 0 4.6.2 5.9.4v4.4c-1.2-.1-3.3-.4-5.7-.4-2.8 0-3.4.3-3.4 1.5s1.5 1.8 3.8 2.8c3.5 1.6 6.3 2.9 6.3 6.9 0 4.2-2.6 6.1-8.2 6.1-2.2 0-4.3-.3-6.2-.6M150 120.4v21.1h-4.7v-8.4h-7.4v8.4h-4.7v-21.1h4.7v8.3h7.4v-8.3zM153.9 120.4h4.7v21h-4.7zM44.2 148.7v21h-4.7V155l-6.4 10.5-6.3-10.5v14.7h-4.7v-21h6.1l4.9 8.6 4.9-8.6zM47.4 159.2c0-7.5 2.9-10.8 9.1-10.8 6.2 0 9.1 3.3 9.1 10.8 0 7.5-2.9 10.8-9.1 10.8-6.2 0-9.1-3.3-9.1-10.8m13.3 0c0-4.3-.7-6.5-4.2-6.5-3.4 0-4.2 2.2-4.2 6.5s.7 6.5 4.2 6.5c3.4 0 4.2-2.2 4.2-6.5M72 153.1h-5.7v-4.4h16.1v4.4h-5.7v16.6H72zM83.2 159.2c0-7.5 2.9-10.8 9.1-10.8s9.1 3.3 9.1 10.8c0 7.5-2.9 10.8-9.1 10.8s-9.1-3.3-9.1-10.8m13.2 0c0-4.3-.7-6.5-4.2-6.5s-4.2 2.2-4.2 6.5.7 6.5 4.2 6.5 4.2-2.2 4.2-6.5M104.5 148.7h8.5c4.5 0 7.4 1.7 7.4 6.7 0 3.3-1.6 5.4-4.3 6l5.2 8.3h-5.5l-4.4-7.5h-2.1v7.5h-4.7v-21zm8.3 9.4c2.1 0 2.8-1.1 2.8-2.7s-.7-2.7-2.8-2.7h-3.5v5.4h3.5zM123.3 169.5v-4.4c1 .2 3.3.6 6.2.6 2.4 0 3.6-.3 3.6-1.7 0-1.5-1-1.7-4.4-3.3-3.3-1.5-5.8-2.8-5.8-6.4 0-4.4 2.7-5.9 7.9-5.9 2.7 0 4.6.2 5.9.4v4.4c-1.2-.1-3.3-.4-5.7-.4-2.8 0-3.4.3-3.4 1.4 0 1.2 1.5 1.8 3.8 2.8 3.5 1.6 6.3 2.9 6.3 6.9 0 4.2-2.6 6.1-8.2 6.1-2.2 0-4.3-.2-6.2-.5"/><g><path class="logo" d="M58.9 34.9l20.2 34.8 20.1-34.8L79.1 0zM119.3 69.7H79.1l20.1 34.9h40.2zM38.8 69.7h40.3l-20.2 34.9H18.7z" fill="#EC2227"/></g></svg>