<?xml version="1.0" encoding="utf-8"?>
<!-- Generator: Adobe Illustrator 21.1.0, SVG Export Plug-In . SVG Version: 6.00 Build 0)  -->
<svg version="1.1" id="Layer_1" xmlns="http://www.w3.org/2000/svg" xmlns:xlink="http://www.w3.org/1999/xlink" x="0px" y="0px"
	 viewBox="0 0 430.4 63.5" style="enable-background:new 0 0 430.4 63.5;" xml:space="preserve">
<g>
	<path d="M123.7,57c0,0.5-0.4,0.9-0.9,0.9h-18.5c-0.5,0-0.9-0.4-0.9-0.9v-50c0-0.5,0.4-0.9,0.9-0.9h18.5c0.5,0,0.9,0.4,0.9,0.9V57z"
		/>
	<path d="M90.6,5.8H66.4c-0.5,0-1.7,0.6-2.1,1.6c-0.4,1-8.5,19.8-9,20.5c-0.5,0.7-1.6,0.9-1.6-0.3V6.7c0-0.5-0.4-0.9-0.9-0.9H41.5
		c-8,0.3-12.4,3.7-14.4,5.7c-0.8,0.8-3.6,3.1-6.1,8.3C16,30.6,7.6,50.1,5.1,56c-0.4,1-0.2,1.9,1.2,1.9h16.8c1.2,0,1.9-1,2.3-1.8
		c1.4-3.3,9.8-22.7,10.8-24.6c0.3-0.5,1.4-2.2,1.8-2.5c1.1-0.9,2.6-1.1,2.6,0.4V57c0,0.5,0.4,0.9,0.9,0.9h14.5
		c0.5,0,1.8-1.2,1.8-1.6c0,0,6.4-14.6,6.4-14.6c2.9-6.9,5-11.6,5.6-12.6c0.6-1,1.2-0.9,1.8-0.9c1.7,0,1.6,1.4,1.6,1.4V57
		c0,0.5,0.4,0.9,0.9,0.9h16.6c0.5,0,0.9-0.4,0.9-0.9V6.7C91.5,6.2,91.1,5.8,90.6,5.8"/>
	<path d="M181.7,24.8c0-4.1-5.3-5.6-7.9-5.9c-3.4-0.3-14.7-0.3-16.8-0.2c-2.1,0.1-1.9,0.9-1.9,1.6c0,0.8,0,8,0,9.1
		c0,1.1,0.6,1.2,1.2,1.2h17C176.4,30.6,181.7,28.4,181.7,24.8 M200.3,24.9c-0.2,7.9-8.1,12.6-10.1,13.6c-1.8,1-1,1.6-0.7,2.2
		c0.3,0.6,10.5,16.1,10.5,16.1c0.3,0.5,0.2,0.9-0.3,0.9l-17.9,0.2c-0.5,0-1.2-0.4-1.5-0.9c0,0-8.2-12.6-8.6-13.2
		c-0.4-0.6-0.6-0.8-1.2-0.8h-14.2c-1.1,0-1.1,0.8-1.1,1.3V57c0,0.5-0.4,0.9-0.9,0.9h-17.8c-0.5,0-0.9-0.4-0.9-0.9V6.7
		c0-0.5,0.4-0.9,0.9-0.9c0,0,35.3-0.9,43.6,0.3C196.4,8.7,200.5,17.1,200.3,24.9"/>
	<path d="M231.3,33.3h22.8c0.6,0,1.2-0.1,1.2-1.2c0-1.1,0-11.1,0-11.9c0-0.7,0.2-1.6-1.9-1.5c-2.2,0-6.9,0-10.3,0
		c-2.8,0-8,0.9-10.9,3.6c-3,2.8-3.4,7.4-3.4,9.5C228.8,33.9,230.5,33.3,231.3,33.3 M214.9,15.7c5-6.1,12.4-8.4,19.9-9.6
		c8.3-1.3,39.9-0.3,39.9-0.3c0.5,0,0.9,0.4,0.9,0.9V57c0,0.5-0.4,0.9-0.9,0.9h-18.5c-0.5,0-0.9-0.4-0.9-0.9v-9.8
		c0-0.6-0.1-1.3-1.1-1.3h-24c-0.6,0-1.3,0.1-1.3,0.8c-0.1,1.5,0.2,10,0,10.4c-0.2,0.4-0.9,0.9-1.4,0.9c0,0-15.6,0-16.8,0
		c-1.2,0-2-0.5-2-1.5c0-4,0-15,0-20.4C208.7,29.4,209.4,22.4,214.9,15.7"/>
	<path d="M288.4,16.7c7-9.6,17.9-11.7,28.6-12c1.7,0,33.9-0.1,33.9-0.1c1,0,1.4,0.7,1.4,1.5c0,0.2,0,7.3,0,10.3
		c0,0.8-0.6,1.4-1.1,1.4c-9.1,0-20.8,0-28.9,0c-10.2,0-18.3,5.3-18.3,14.5c0,12.9,14,14.9,16.1,14.9c0.2,0,9.8,0,11.4,0
		c0.3,0,1.2,0,1.2-1.1c0-0.9,0.1-4.9,0-5.8c-0.1-0.9-0.4-1.2-1.3-1.2c-1.6,0-8.6,0-11.1,0c-1.1,0-1.5-0.9-1.5-1.4V26.8
		c0-0.5,0.4-0.9,0.9-0.9h31.4c0.5,0,0.9,0.4,0.9,0.9v31c0,0.5-0.4,0.9-0.9,0.9c0,0-31.2,0.5-39.2-0.1c-7.6-0.5-17.5-3.6-23.1-11.1
		C283.2,39.9,281.9,25.6,288.4,16.7"/>
	<path d="M423.6,25.9c1,0,1.9,0.2,1.9,1.2c0,1.1-0.1,9.9-0.1,10.6c0,0.5,0,1.2-1.3,1.2c-3,0-37,0-40.2,0.1c-2.9,0.1-2.6,1-2.1,2.2
		c0.7,1.5,3.2,5.8,14.8,5.8h28c0.5,0,0.9,0.4,0.9,0.9v9.8c0,0.5-0.4,0.9-0.9,0.9c0,0-27.7,0.5-35.8-0.1c-7.6-0.5-17.5-3.6-23.1-11.1
		c-5.8-7.7-7.1-21.6-0.4-30.7c7-9.5,17.7-11.9,28.4-12.1c1.7,0,30.4-0.1,30.4-0.1c1,0,1.4,0.7,1.4,1.4c0,0.2,0,7.3,0,10.3
		c0,0.8-0.6,1.4-1.1,1.4c-9.1,0-17.2,0-25.4,0c-10.2,0-15.7,1.3-17.7,6.6c-0.4,1.2,0.3,1.6,2.2,1.6
		C383.6,25.8,422.5,25.9,423.6,25.9"/>
</g>
</svg>
