<?xml version="1.0" encoding="utf-8"?>
<!-- Generator: Adobe Illustrator 21.1.0, SVG Export Plug-In . SVG Version: 6.00 Build 0)  -->
<svg version="1.1" id="Layer_1" xmlns="http://www.w3.org/2000/svg" xmlns:xlink="http://www.w3.org/1999/xlink" x="0px" y="0px"
	 viewBox="0 0 275.5 26.1" style="enable-background:new 0 0 275.5 26.1;" xml:space="preserve">
<g>
	<path d="M21.7,21.6H10.9C6,16.6,6,9.4,10.9,4.4h10.8C26.6,9.4,26.6,16.6,21.7,21.6 M26.1,0H6.5C2.3,3.4,0,7.7,0,13
		s2.3,9.6,6.5,13h19.6c4.1-3.4,6.4-7.7,6.5-13C32.6,7.6,30.3,3.3,26.1,0"/>
	<path d="M263.9,10.9c-0.1,0.1-0.3,0.2-0.4,0.2h-9.9c-0.4,0-0.6-0.2-0.6-0.6V5.1c0-0.4,0.2-0.6,0.6-0.6h10.2l0.1,0.1
		C265.7,6.4,265.7,9,263.9,10.9 M268.8,14.3c2.8-1.5,4.4-4.6,3.9-7.8c-0.4-2.5-2.2-5.4-6-6c-7.1,0-14.3,0-21.4,0v25.2h7.7V15.6
		c0-0.4,0.2-0.6,0.6-0.6h7.7c0.2,0,0.4,0.1,0.5,0.3c2,3.5,4,7,6.1,10.4h7.6C273.2,21.9,271,18.1,268.8,14.3"/>
	<path d="M173,19.7c0.3,0,0.4-0.1,0.4-0.4V0.5h7.7v24.9c0,0.2-0.2,0.4-0.4,0.4h-9.4c-1.7,0-2.9-0.9-3.6-2.4
		c-2.2-5.3-4.3-10.6-6.5-16c-0.1-0.2-0.3-0.4-0.5-0.4h-0.2c-0.3,0-0.4,0.1-0.4,0.4v18.2h-7.7V0.9c0-0.2,0.2-0.3,0.4-0.3h8.7
		c1.9,0,3.5,1,4.2,2.8c2.2,5.4,4.4,10.7,6.5,16.1c0.1,0.2,0.2,0.3,0.4,0.3h0.4V19.7z"/>
	<path d="M129.8,16.8L133.9,6h0.6c0.5,0,0.8,0.4,0.9,0.8l3.8,10H129.8z M141.7,3.4c-0.7-1.8-2.2-2.9-4.1-2.9h-9.2
		c-3.2,8.4-6.3,16.8-9.5,25.2h7.5c0.6-1.6,1.2-3.2,1.8-4.8h12.5c0.6,1.6,1.2,3.2,1.8,4.8h7.5C147.2,18.3,144.5,10.8,141.7,3.4"/>
	<path d="M192.2,20.6c0,0.8,0.2,1,1,1h10.9c2.8-2.5,2.8-5.3,2.8-8.5c0-3.1,0-6.2-2.8-8.5h-19.6v-4H210
		c3.2,3.6,4.1,8.1,4.1,12.6s-0.9,9-4.1,12.6h-25.5V8.3h7.7L192.2,20.6L192.2,20.6z"/>
	<path d="M96.9,24.7c0,0.7,0.4,1,1,1h18.3c0.5-1.4,1-2.8,1.6-4.2h-12.5c-0.6,0-0.9-0.3-0.9-0.9v-17c0-2-1.1-3.1-3-3.1
		h-4.5C96.9,0.5,96.9,24.7,96.9,24.7z"/>
	<path d="M224.8,10c0,1,0,1,1,1h12.4v4h-12.4c-1,0-1,0-1,1v4.5c0,1,0,1,1,1h15.7v4.2h-24.4V0.5c8.1,0,16.3,0,24.4,0v4
		h-15.7c-1,0-1,0-1,1V10z"/>
	<path d="M34.9,20.9c4.1,3.9,9.2,5.2,14.7,5.2s10.6-1.3,14.7-5.2V0.5h-7.8V19c-4,1.9-9.7,1.9-13.7,0V0.6H35L34.9,20.9z"
		/>
	<path d="M84.1,25.8h-7.5V6.4c0-0.6-0.3-0.9-0.9-0.9h-9v-5h27.4v5H85c-0.6,0-0.9,0.3-0.9,0.9V25.8z"/>
</g>
</svg>
