<?xml version="1.0" encoding="utf-8"?>
<!-- Generator: Adobe Illustrator 21.1.0, SVG Export Plug-In . SVG Version: 6.00 Build 0)  -->
<svg version="1.1" id="Layer_1" xmlns="http://www.w3.org/2000/svg" xmlns:xlink="http://www.w3.org/1999/xlink" x="0px" y="0px"
	 viewBox="0 0 108.8 17.8" style="enable-background:new 0 0 108.8 17.8;" xml:space="preserve">
<title>logo-asx</title>
<path d="M89.1,6.7C91.6,5,94,3.3,96.5,1.6h12c-2,1.3-8.4,5.4-12.3,7.8c4,2.8,8.5,5.5,12.3,8.3H96.8l-7.6-5.2c-2.6,1.6-5,3.5-7.6,5.2
	h-12c3.9-2.7,8.7-5.7,12.5-8.2c-1.4-1-6.3-3.9-6.3-3.9s-28.4-0.2-30.7,0c-0.4,0-1.9,0.3-2,1c0,0.5,0.8,0.9,1.1,0.9
	c1.5,0.4,4,0.2,5.8,0.2h8c5.4,0,10.6,0,12.9,3.1c0.8,1.2,0.7,2.8-0.2,4c-3,3.6-11.4,2.8-18.4,2.8h-21c0,0-5.3-6.1-7.5-8.4
	c-1-1.1-2.1-2.4-4.2-2.1c-0.5,0.1-0.9,0.3-1.3,0.5c-2.3,1.4-3.5,3.5-5.7,6.2h11.1c0,0,1.6,1.8,3.4,3.9H0c0.9-1.3,5.5-6.6,8.1-9.6
	c2.9-3.4,5.8-6.5,11.5-6.8c5-0.3,8.3,2.1,10.6,4.5c2.1,2.1,4.1,4.7,6.1,7.1l0.9,0.9h20.3c1.7,0,5.6,0.2,5.7-1.1c0-0.8-1.6-1-2.6-1.1
	c-3.5-0.1-7.4,0-10.7,0c-4.5,0-9.8,0.1-12.7-1.6c-1.2-0.7-2.7-2-2.3-4c0.6-2.9,4.7-4.2,8.4-4.4c4.2-0.2,27.5,0,35.1,0h3.2
	C81.8,1.6,87.3,5.3,89.1,6.7"/>
</svg>
