<svg id="Layer_1" data-name="Layer 1" xmlns="http://www.w3.org/2000/svg" viewBox="0 0 108.81 26.2"><defs><style>.cls-1{fill:#fff;}.cls-2{fill:none;}</style></defs><title>logo-asx</title><path class="cls-1" d="M89.13,15.14c2.46-1.67,4.87-3.39,7.34-5.05h12c-2,1.32-8.41,5.38-12.26,7.75,4,2.83,8.48,5.48,12.26,8.29H96.81l-7.55-5.19c-2.61,1.63-5,3.49-7.55,5.19h-12c3.93-2.67,8.65-5.74,12.46-8.22-1.43-1-6.27-3.91-6.27-3.91s-28.38-.22-30.72,0c-.38,0-1.92.27-2,1,0,.49.81.86,1.08.94,1.5.44,4,.2,5.79.2h8c5.4,0,10.61,0,12.87,3.1a3.48,3.48,0,0,1-.2,4c-3,3.65-11.44,2.83-18.39,2.83H31.26S26,20,23.78,17.63c-1-1.06-2.09-2.45-4.18-2.15a3.66,3.66,0,0,0-1.28.54c-2.28,1.36-3.49,3.47-5.73,6.2H23.71s1.61,1.79,3.37,3.91H0c.94-1.34,5.46-6.6,8.08-9.63C11,13.14,13.86,10,19.54,9.68c5.05-.3,8.28,2.15,10.64,4.51,2.06,2.07,4.08,4.68,6.13,7.07.29.34.94.94.94.94H57.6c1.7,0,5.62.23,5.66-1.08,0-.84-1.64-1-2.56-1.08-3.5-.12-7.37,0-10.71,0-4.47,0-9.84.08-12.66-1.62-1.18-.71-2.68-2-2.29-4,.57-2.94,4.7-4.21,8.42-4.38,4.2-.19,27.52,0,35.1,0h3.17c.09,0,5.56,3.75,7.41,5.05"/><path class="cls-1" d="M96.77,6.19H99.6l1.88-4.08h0l1.88,4.08h2.83L108.81,0H106.4L104.7,4.55h0l-2-4.55h-2.28l-2,4.55h0L96.57,0H94.16Zm-12.27,0h8.93V4.7H87v-1h6V2.43H87v-1h6.33V0H84.5Zm-12.6,0h2.46V1.69h0L79,6.19h3.82V0H80.37V4.5h0L75.72,0H71.9Zm-14.53,0h8V4.6H59.84V0H57.38Zm-9,0h8V4.6H50.8V0H48.33Zm-6.9-4.75L43,3.76H39.88ZM35.48,6.19h2.75L39,5.09h5l.77,1.09h2.74L43,0H39.83Z"/><rect class="cls-2" y="8.45" width="108.81" height="17.76"/></svg>
