<?xml version="1.0" encoding="utf-8"?>
<!-- Generator: Adobe Illustrator 21.1.0, SVG Export Plug-In . SVG Version: 6.00 Build 0)  -->
<svg version="1.1" id="Layer_1" xmlns="http://www.w3.org/2000/svg" xmlns:xlink="http://www.w3.org/1999/xlink" x="0px" y="0px"
	 viewBox="0 0 119 119" style="enable-background:new 0 0 119 119;" xml:space="preserve">
<style type="text/css">
	.st0{fill-rule:evenodd;clip-rule:evenodd;fill:#FFFFFF;}
</style>
<path class="st0" d="M45.5,34.8L80.7,59L45.5,83.2V34.8z"/>
<path class="st0" d="M59.5,0C26.6,0,0,26.6,0,59.5C0,92.4,26.6,119,59.5,119c32.9,0,59.5-26.6,59.5-59.5C119,26.6,92.4,0,59.5,0z
	 M59.5,113.5c-29.8,0-54-24.2-54-54c0-29.8,24.2-54,54-54c29.8,0,54,24.2,54,54C113.5,89.3,89.3,113.5,59.5,113.5z"/>
</svg>
