<?xml version="1.0" encoding="utf-8"?>
<!-- Generator: Adobe Illustrator 21.1.0, SVG Export Plug-In . SVG Version: 6.00 Build 0)  -->
<svg version="1.1" id="Layer_1" xmlns="http://www.w3.org/2000/svg" xmlns:xlink="http://www.w3.org/1999/xlink" x="0px" y="0px"
	 viewBox="0 0 120.5 44.4" style="enable-background:new 0 0 120.5 44.4;" xml:space="preserve">
<style type="text/css">
	.st0{stroke:#FFFFFF;stroke-miterlimit:10;}
	.st1{fill:none;stroke:#FFFFFF;stroke-width:0.25;stroke-miterlimit:10;}
	.st2{fill:none;stroke:#FFFFFF;stroke-width:0.1;stroke-miterlimit:10;}
</style>
<g>
	<g>
		<path class="st0" d="M25,43.9c-5.1,0-9.2-4.1-9.2-9.2s4.1-9.2,9.2-9.2s9.2,4.1,9.2,9.2S30.1,43.9,25,43.9z M25,25.7
			c-4.9,0-9,4-9,9s4,9,9,9s9-4,9-9S29.9,25.7,25,25.7z"/>
	</g>
	<g>
		<path class="st0" d="M25,41.2c-3.6,0-6.5-2.9-6.5-6.5s2.9-6.5,6.5-6.5s6.5,2.9,6.5,6.5S28.6,41.2,25,41.2z M25,28.4
			c-3.5,0-6.3,2.8-6.3,6.3S21.5,41,25,41s6.3-2.8,6.3-6.3S28.5,28.4,25,28.4z"/>
	</g>
	<g>
		<path class="st0" d="M95.2,43.9c-5.1,0-9.2-4.1-9.2-9.2s4.1-9.2,9.2-9.2s9.2,4.1,9.2,9.2S100.3,43.9,95.2,43.9z M95.2,25.7
			c-4.9,0-9,4-9,9s4,9,9,9s9-4,9-9S100.2,25.7,95.2,25.7z"/>
	</g>
	<g>
		<path class="st0" d="M95.2,41.2c-3.6,0-6.5-2.9-6.5-6.5s2.9-6.5,6.5-6.5s6.5,2.9,6.5,6.5S98.9,41.2,95.2,41.2z M95.2,28.4
			c-3.5,0-6.3,2.8-6.3,6.3s2.8,6.3,6.3,6.3s6.3-2.8,6.3-6.3S98.7,28.4,95.2,28.4z"/>
	</g>
	<g>
		<path class="st1" d="M13.7,35.1"/>
	</g>
	<g>
		<path class="st0" d="M106.2,37.1l-0.1-0.2l0,0c0.1-0.2,0.1-2,0-3.7c-0.2-2.4-0.8-5.7-3-7.4c-2.2-1.6-4.8-2.5-7.5-2.6
			c-1.8-0.1-3.6,0.2-5.3,0.8c-4.4,1.6-5.4,6.1-5.8,9.4l-0.3,3h-0.1l-48.5,0.3L35.2,33c-0.7-5-3.8-8.6-8.1-9.5
			c-3.9-0.8-7.7-0.1-10.1,2c-3.7,3.3-3,10.2-3,10.2v0.2h-0.2l-9.9-1.7l-1.4-0.7c-0.5-0.2-0.8-0.7-0.9-1.2L1,28.1l0.4-0.6l0.1-4.3
			l0.9-1.6v-3l-0.3-0.8L2.5,14l1.2-0.6C4,13,7.9,8,12.7,4.8V3.5l1.6-0.3c0.2-0.1,1.5-0.8,2.7-0.6l2.3-0.7c0.2,0,16.5-2.2,38.5-1
			c0.1,0,6.3,0.2,14.3,4.8c7.6,4.4,12.5,7.6,12.9,7.8c0.8,0.1,15.5,1.5,19.4,2.4l0.2,0.1c4,0.9,7.4,1.7,8.5,3.8
			c0.3,0.2,2,1.4,2.8,3.7c0.2,0.2,1.6,1.1,1.6,2.2c0,0.1,0,0.3,0,0.5c0.1,1.3,0.2,4.1-2.3,6.8c0.4,0.1,1.1,0.2,1.6,0.6l0.1,0.1
			l-0.3,1l-2.2,1C114.5,35.5,106.2,37.1,106.2,37.1z M106.1,36.9L106.1,36.9L106.1,36.9L106.1,36.9z M95,23c0.2,0,0.4,0,0.5,0
			c2.8,0.1,5.5,1,7.7,2.7c1.8,1.4,2.9,3.9,3.1,7.5c0.1,2.3,0.1,3.2,0,3.6c0.5-0.1,2.3-0.4,8.1-1.5l2-1l0.2-0.7
			c-0.6-0.4-1.6-0.5-1.6-0.6h-0.3l0.2-0.2c2.6-2.7,2.4-5.3,2.4-6.7c0-0.2,0-0.4,0-0.5c0-1.1-1.5-2-1.5-2.1l0,0l0,0
			c-0.9-2.4-2.8-3.6-2.8-3.6l0,0l0,0c-1.1-2.1-4.5-2.8-8.4-3.7l-0.2-0.1c-4-0.9-19.3-2.4-19.4-2.4h-0.1c0,0-5-3.3-12.9-7.8
			c-7.9-4.6-14.1-4.7-14.1-4.7C36,0,19.6,2.1,19.5,2.2l-2.3,0.7l0,0c-1.3-0.2-2.6,0.6-2.6,0.6l0,0l-1.7,0.1v1.3h-0.1
			c-4.9,3.3-8.9,8.6-9,8.6l0,0l-1.1,0.6l-0.4,3.7l0.2,0.8v3.2l-0.9,1.6l0,4.2l-0.4,0.6l0.6,4.1c0.1,0.4,0.3,0.8,0.7,1L3.8,34
			l9.7,1.6c-0.1-1.1-0.4-7.2,3.1-10.3c2.4-2.1,6.3-2.9,10.3-2c4.4,0.9,7.6,4.7,8.3,9.7l0.4,3.5l48.2-0.3l0.3-2.8
			c0.4-3.4,1.5-8,6-9.6C91.6,23.3,93.3,23,95,23z"/>
	</g>
	<g>
		<path class="st0" d="M114.5,35.4L114.5,35.4l0.8-1.8L115,33c-0.3,0.4-1.6,0.6-1.7,0.6l-6.1,0.1l0,0c0,0,0-1.8-0.6-3.8
			c-0.6-1.9-1.7-4.4-4.1-5.6c-3-1.6-6-2.3-8.9-2c-2.6,0.2-4.9,1.2-6.8,2.8c-3.5,2.9-3.9,9.7-3.9,9.7l0,0l0,0l-46-0.8l0,0
			c0,0-0.2-0.8-1.1-4.3c-1-2.9-3.2-5.2-6.3-6.5s-6.6-1.4-9.9-0.3c-3.5,1.2-5.2,3.8-6,5.9c-0.9,2.2-0.9,4.1-0.9,4.2v0.1h-0.1
			c-0.1,0-7.5-2.1-8.6-2.4c-1.2-0.3-2.5-2.7-2.5-2.8h0.1c0,0,1.3,2.5,2.5,2.8c1.1,0.3,7.8,2.2,8.6,2.4c0-0.4,0.1-2.1,0.9-4.1
			c0.8-2,2.5-4.7,6-5.9c3.3-1.1,6.8-1,9.9,0.3s5.4,3.7,6.4,6.6c0.8,3.2,1,4.1,1.1,4.3l45.9,0.8c0-0.6,0.5-7,3.9-9.8
			c1.9-1.6,4.3-2.5,6.9-2.8c2.9-0.3,6,0.4,9,2c2.4,1.3,3.6,3.8,4.2,5.7c0.6,1.9,0.6,3.5,0.6,3.8l6-0.1c0.4,0,1.6-0.2,1.7-0.6v-0.1
			l0.4,0.9l0,0L114.5,35.4z"/>
	</g>
	<g>
		<polygon class="st0" points="115.4,33.7 115.4,33.6 116.8,33.5 116.8,33.6 		"/>
	</g>
	<g>
		<path class="st0" d="M13.7,34c-0.4-0.1-9-2.1-10.1-2.8S1.3,28.1,1.2,28h0.1c0,0,1.2,2.4,2.3,3.1C4.7,31.8,13.6,33.8,13.7,34
			L13.7,34z"/>
	</g>
	<g>
		<path class="st0" d="M80.3,34.7L80.3,34.7c0.1-0.4,0.1-0.8,0.1-0.9c-1.6-1.7-6.7-2-6.7-2l-37.9-1.7V30l37.9,1.7
			c0.2,0,5.2,0.3,6.8,2l0,0l0,0C80.5,33.8,80.5,34.3,80.3,34.7z"/>
	</g>
	<g>
		<path class="st0" d="M78.3,33.5L78.3,33.5l-36.2-0.9c-0.8,0-1.6-0.3-2.3-0.7L38,30.7h0.2L73,32.2C73.2,32.3,77.2,32.4,78.3,33.5
			L78.3,33.5z M38.3,30.9l1.5,1c0.7,0.4,1.5,0.7,2.3,0.7L78,33.4c-1.2-0.9-5-1-5-1L38.3,30.9z"/>
	</g>
	<g>
		<path class="st0" d="M79.1,34L79.1,34l-24.3-0.4c-0.5,0-13.5-0.2-14.5-0.4c-1-0.3-2.6-2.3-2.7-2.4l-0.1-0.1h0.7v0.1h-0.4
			c0.3,0.4,1.7,2,2.5,2.2c1,0.3,14.3,0.4,14.4,0.4l24,0.4l-0.6-0.5l0.1-0.1L79.1,34z"/>
	</g>
	<g>
		<path class="st0" d="M80.7,34.7L80.7,34.7c-0.1-0.1,1.3-6.3,1.6-9.6c0.3-3.5,0.1-5.1-0.2-6.4c-0.2-0.6,0.2-1.4,0.2-1.4l0,0
			c0,0,0.2-0.9-0.9-3.3S70.8,6.1,70.7,6c0,0-4.2-2.5-9.9-3.1c-5.3-0.5-9.4-0.6-10-0.7l1.8,11.1l0.5,2.4v0.7l0.2,1.2v4.3L53,30.4
			c0,0-0.1,2.4-0.5,3.8h-0.1c0.4-1.3,0.5-3.7,0.5-3.7l0.3-8.5v-4.4L53,16.4v-0.7l-0.5-2.4L50.7,2.1h0.1c0,0,4.4,0.1,10,0.7
			s9.9,3.1,9.9,3.1c0.4,0.2,9.6,5.6,10.7,8c1.1,2.4,0.9,3.3,0.9,3.4c0,0-0.4,0.8-0.2,1.4c0.3,1.3,0.4,2.9,0.2,6.4
			C82.2,28.4,80.7,34.6,80.7,34.7z"/>
	</g>
	<g>
		<path class="st0" d="M75.7,10.1c-4.1-2.7-6.8-4.4-10.5-5.6C61.6,3.3,51.1,3,51,3V2.9c0.1,0,10.7,0.3,14.3,1.5
			C69,5.6,71.7,7.3,75.7,10.1L75.7,10.1z"/>
	</g>
	<g>
		<path class="st0" d="M55.1,13.4c0-0.1-1.9-8.8-2-9.5c-0.1-0.3,0-0.5,0.1-0.6c0.1-0.2,0.3-0.2,0.3-0.2l0,0v0.1l0,0
			c0,0-0.2,0-0.3,0.1c-0.1,0.1-0.1,0.3-0.1,0.6C53.3,4.5,55.2,13.2,55.1,13.4L55.1,13.4z"/>
	</g>
	<g>
		<path class="st0" d="M78.2,14.2L78.2,14.2c-0.5-0.7-2.6-1-3.3-1h-0.1c-0.2,0-0.4,0-0.5-0.1c-0.1-0.3-0.1-0.5-0.1-0.5
			c-0.1-1.8,0.1-2.4,0.3-2.5c0.1,0,0.1,0,0.1,0c0.7-0.1,1.2-0.2,2.3,0.7c0.9,0.8,0.9,1.9,0.9,2.2c0.3,0,0.5,0.4,0.6,0.4l0,0l0,0
			L78.2,14.2z M74.9,13c0.6,0,2.7,0.3,3.3,0.9l0.1-0.6c-0.1-0.1-0.3-0.4-0.5-0.4l0,0h-0.1v-0.1c0,0,0.2-1.3-0.8-2.1
			c-1.1-0.9-1.5-0.8-2.2-0.7l0,0l0,0c0,0,0,0-0.1,0c-0.1,0.1-0.4,0.5-0.3,2.4c0,0,0,0.2,0.1,0.3s0.2,0.1,0.3,0.1
			C74.7,13,74.8,13,74.9,13C74.8,13,74.8,13,74.9,13z"/>
	</g>
	<g>
		<path class="st0" d="M77.5,14.9L77.5,14.9c-0.7,0-2.4,0-2.4,0l0,0l0,0l-0.9-0.6c-0.1,0-0.3-0.4-0.3-3.2c0,0,0.1-0.9,0.8-1v0.1
			c-0.6,0.1-0.7,0.9-0.7,0.9c0,2.8,0.2,3.1,0.3,3.1l0,0l0,0l0.9,0.6c0.2,0,1.7,0,2.3,0l0,0c0.1,0,0.3,0,0.4-0.1
			c0.2-0.2,0.2-0.6,0.2-0.6h0.1c0,0,0,0.4-0.3,0.7C77.8,14.8,77.7,14.9,77.5,14.9z"/>
	</g>
	<g>
		<path class="st0" d="M77.5,14.8l-0.2-0.4c-1.3,0.3-3-0.2-3.1-0.2v-0.1c0,0,1.8,0.5,3,0.2l0,0L77.5,14.8L77.5,14.8z"/>
	</g>
	<g>
		<path class="st0" d="M79.2,15.2c-0.1,0-0.2,0-0.3,0h-2.2l-0.3-0.3l0.1-0.1l0.3,0.3H79c1.2,0,1.5-0.2,1.6-0.3s0-0.1,0-0.1
			c-0.2-1.5-3.3-3.4-3.3-3.4l0.1-0.1c0.1,0.1,3.1,1.9,3.4,3.5c0,0,0,0.1-0.1,0.2C80.5,15,80.2,15.2,79.2,15.2z"/>
	</g>
	<g>
		<path class="st0" d="M84.7,13.7c-0.2,0-0.6-0.1-1.5-0.5c-2.6-1.9-15.9-9.8-16-9.9l0.1-0.1c0.1,0.1,13.4,7.9,16,9.9
			C84.6,13.7,84.8,13.6,84.7,13.7l0.1-0.2h0.1c0,0,0,0.1,0,0.2C84.9,13.7,84.9,13.7,84.7,13.7z"/>
	</g>
	<g>
		<polygon class="st0" points="83.3,13.2 80.8,13.1 80.8,13 83.3,13.1 		"/>
	</g>
	<g>
		<path class="st0" d="M49.9,13.2c0-0.1-1-8.7-1-9.4c0-0.2-0.1-0.4-0.2-0.5c-0.2-0.2-0.5-0.1-0.5-0.1V3.1c0,0,0.4,0,0.6,0.2
			C48.9,3.4,49,3.6,49,3.8C49,4.5,50,13.1,49.9,13.2L49.9,13.2z"/>
	</g>
	<g>
		<path class="st0" d="M31.3,12.2L28,12.1V12c0-0.1,2.7-7,3.3-8.3s2.3-1.2,2.4-1.2l17.1-0.3v0.1L33.7,2.6c0,0-1.7-0.1-2.3,1.2
			c-0.5,1.2-3,7.5-3.3,8.2L31.3,12.2L31.3,12.2z"/>
	</g>
	<g>
		<path class="st0" d="M29.2,23c-1.4-0.7-1.7-3.3-1.7-3.5l-0.3-2.1c-0.3-1.7,0-3.4,0.7-5l0.2-0.4l-9.9-0.5c0,0-2.6-0.2-2.6-1.8
			c0-0.5,1.1-1.5,1.2-1.6L21.7,4l0.1,0.1l-4.9,4.1c0,0-1.1,1-1.1,1.5c0.1,1.5,2.5,1.7,2.5,1.7l10,0.6l-0.2,0.5
			c-0.7,1.5-1,3.2-0.7,4.9l0.4,2.2C27.6,19.6,27.9,22.3,29.2,23L29.2,23z"/>
	</g>
	<g>
		<path class="st0" d="M75.3,14.9h-0.2l-22.5-1.2l-24.7-1.3c-0.4,0-10.5-0.6-11.3-0.7c-0.9-0.2-1.9-0.8-2.5-1.4
			c-0.2-0.2-0.3-0.4-0.3-0.6c0-0.4,0.3-0.6,0.3-0.6l1-0.9c4.6-4.1,6.5-4.1,6.5-4.1l9.9-0.7v0.1l-9.9,0.7l0,0c-0.1,0-2,0.1-6.5,4.1
			l-1,0.9c0,0-0.2,0.2-0.2,0.5c0,0.2,0.1,0.3,0.2,0.5c0.6,0.5,1.6,1.2,2.4,1.4c0.8,0.2,11.2,0.7,11.3,0.7l24.9,1.3L75,14.7l-0.2-0.1
			l-22.1-1.2l-21.3-1.2l0,0l-0.3-3.3l0,0c0,0,1.3-3.7,1.6-4.7s0.8-0.9,0.9-0.9L51,3.1v0.1L33.6,3.4c0,0-0.5-0.1-0.8,0.8
			c-0.2,0.9-1.5,4.4-1.6,4.7l0.2,3.2l21.2,1.2l22.2,1.2l0,0L75.3,14.9z"/>
	</g>
	<g>
		<path class="st0" d="M87.3,18c-0.1,0-0.1,0-0.2,0c-1.6,0-4.9,0-4.9,0l-29.1-1.5l-25.9-1.2L12,14.5v-0.1l15.2,0.2l25.9,1l29.3,1.5
			l5.8,0.3l0,0c0,0,0.1,0.1,0.1,0.2C88.3,17.8,88.1,18,87.3,18z M85.2,17.8c0.7,0,1.4,0,1.9,0c0.1,0,0.1,0,0.2,0
			c0.9,0,0.9-0.1,1-0.2c0,0,0-0.1-0.1-0.1l-5.8-0.3l-29.3-1.5l-25.9-1l-12.6-0.2l12.6,0.7l25.9,1.2l29.1,1.5
			C82.2,17.9,83.7,17.8,85.2,17.8z"/>
	</g>
	<g>
		<polygon class="st0" points="12.6,5 12.6,5 13.4,4.4 12.8,3.6 12.8,3.6 13.5,4.4 		"/>
	</g>
	<g>
		<path class="st0" d="M67.4,3.5c-5.3-2.1-17.3-2.1-17.5-2.2c-0.1,0-11.8,0.1-21.4,0.5S16,3.1,16,3.1l0,0h-1.7V3H16
			c0.2-0.1,3.2-0.9,12.5-1.3c9.6-0.4,21.3-0.5,21.4-0.5C50.1,1.3,62.2,1.4,67.4,3.5L67.4,3.5z"/>
	</g>
	<g>
		<path class="st0" d="M6.4,18.6L6.4,18.6c-0.1,0-3.6,0-3.9,0v-0.1C2.8,18.5,5.8,18.5,6.4,18.6c-0.1-0.4,0.1-2.2,3.4-3.1
			c0,0,1.8-0.4,2-0.8c0-0.1,0-0.1,0-0.2c-0.2-0.5-0.5-0.7-1.4-0.8c-0.8-0.1-6.6-0.2-6.7-0.2v-0.1c0.1,0,5.8,0.2,6.7,0.2
			c0.8,0.1,1.2,0.2,1.4,0.8c0,0.1,0,0.2,0,0.2c-0.3,0.5-2,0.9-2.1,0.9C6.2,16.6,6.4,18.5,6.4,18.6L6.4,18.6z"/>
	</g>
	<g>
		<polygon class="st0" points="5.4,18.6 4.7,17.1 2.3,17.1 2.3,17 4.8,17 5.5,18.5 		"/>
	</g>
	<g>
		<polygon class="st0" points="6.1,18.6 5.2,16.4 5.4,15.7 8.4,14.2 8.4,14.2 11.8,14.4 11.8,14.5 8.4,14.3 5.5,15.8 5.3,16.4 
			6.2,18.5 		"/>
	</g>
	<g>
		<polygon class="st0" points="5.5,15.8 5.2,15.2 5.2,15.2 7.3,14.1 7.3,13.5 7.4,13.5 7.4,14.1 7.3,14.1 5.3,15.2 5.6,15.7 		"/>
	</g>
	<g>
		<polygon class="st0" points="4.5,15.7 2.5,15.7 2.5,15.6 4.4,15.6 5.2,15.2 5.3,15.3 		"/>
	</g>
	<g>
		<rect x="2.6" y="14.6" class="st0" width="3.6" height="0.1"/>
	</g>
	<g>
		<path class="st0" d="M17.5,23.6c0,0-3.9-0.7-6.8-1.2c-3-0.5-4.4-3.8-4.4-3.8h0.1c0,0,1.4,3.3,4.3,3.8
			C13.7,22.8,17.6,23.5,17.5,23.6L17.5,23.6z"/>
	</g>
	<g>
		<path class="st0" d="M109.7,19.2c-1-1.6-5-2.7-8.3-3.5c-3.5-0.8-6.8-1.2-6.9-1.2v-0.1C95.2,14.5,108,16.1,109.7,19.2L109.7,19.2z"
			/>
	</g>
	<g>
		<path class="st0" d="M115.8,23.6c0,0-3.5-1.5-5.3-1.7c-1.9-0.2-3.2-1-3.2-1l-3.2-2.4h0.1c1.9-0.1,8.5,1.1,8.6,1.1v0.1
			c-0.1,0-6.2-1.1-8.4-1.1c0,0,0,0-0.1,0l2.9,2.2c0,0,1.3,0.8,3.1,1C112.4,22,115.8,23.5,115.8,23.6L115.8,23.6z"/>
	</g>
	<g>
		<path class="st2" d="M104.5,18.6"/>
	</g>
	<g>
		<path class="st0" d="M109.4,33.1l4-3.7c0,0,0.4-0.4,1.2-0.4c0.7,0,1.4,0,1.6,0c0.3-1.1,0.4-2.4,0.3-3.9V25c0-0.8-4.3-2.2-6.1-2.5
			c-1.7-0.3-2.9-0.8-2.9-0.8l0,0l-3.6-2.9l0.3-0.3l0.1,0.1l-0.2,0.2l3.5,2.8c0.1,0,1.2,0.5,2.9,0.8c1.8,0.3,6.1,1.7,6.2,2.6v0.1
			c0.2,3.7-0.8,6.3-2.9,7.7l0,0l0,0L109.4,33.1z M114.6,29.2c-0.7,0-1.1,0.3-1.1,0.3l-3.8,3.5l4-0.2c1.2-0.8,2.1-2,2.5-3.6
			C116,29.2,115.3,29.2,114.6,29.2z"/>
	</g>
	<g>
		<path class="st0" d="M108.9,33.7L108.9,33.7l0.4-0.4l0,0l4.3-0.1c0.3,0,0.6-0.1,0.9-0.3c0.5-0.4,1.5-1.3,2-2.9
			c0.7-2.3,0.5-3.1,0.5-3.1l0,0l0.6-0.3l0.1,0.1l-0.5,0.3c0,0.2,0.2,1-0.5,3.1c-0.5,1.6-1.5,2.6-2,3c-0.3,0.2-0.6,0.3-0.9,0.3
			l-4.2,0.1L108.9,33.7z"/>
	</g>
	<g>
		<path class="st0" d="M110.1,33.1L110.1,33.1l3.6-3.3c0.2-0.2,0.5-0.3,0.9-0.3l0,0h1.6v0.1h-1.6l0,0c-0.3,0-0.6,0.1-0.8,0.3
			L110.1,33.1z"/>
	</g>
	<g>
		<path class="st0" d="M116.6,25.2l-0.9-0.1c-0.4-0.1-0.7-0.3-0.9-0.6l-0.7-1l0.1-0.1l0.7,1c0.2,0.3,0.5,0.5,0.9,0.5L116.6,25.2
			L116.6,25.2z"/>
	</g>
	<g>
		<path class="st0" d="M116,26.4c-0.2,0-0.3-0.2-0.3-0.4s0.1-0.4,0.3-0.4s0.3,0.2,0.3,0.4S116.2,26.4,116,26.4z M116,25.7
			c-0.1,0-0.2,0.1-0.2,0.3s0.1,0.3,0.2,0.3c0.1,0,0.2-0.1,0.2-0.3S116.1,25.7,116,25.7z"/>
	</g>
	<g>
		<path class="st0" d="M116,26.4c-0.2-0.4,0-0.8,0-0.8l0.1,0.1C116,25.7,115.9,26,116,26.4L116,26.4z"/>
	</g>
	<g>
		<path class="st0" d="M110.1,21.5H110c0,0-1.4-0.1-2.5-0.9c-1.1-0.8-2-1.5-2-1.5l-0.1-0.1l2.3,0.2c0.4,0,0.8,0.3,1.1,0.6
			L110.1,21.5z M105.7,19.1c0.3,0.2,1,0.8,1.9,1.4c0.9,0.6,2,0.8,2.3,0.8l-1.2-1.5c-0.2-0.3-0.6-0.5-1-0.5L105.7,19.1z"/>
	</g>
	<g>
		<path class="st0" d="M101.2,23.6L101.2,23.6c0-0.1,1.5-1.1,1.9-1.8s0.9-3,0.9-3h0.1c0,0.1-0.5,2.3-0.9,3
			C102.8,22.6,101.3,23.5,101.2,23.6z"/>
	</g>
	<g>
		<path class="st0" d="M113.6,21.7h-1.2c-0.6,0-1.2-0.1-1.8-0.2l-0.6-0.1v-0.1l0.6,0.1c0.6,0.1,1.2,0.2,1.8,0.2L113.6,21.7
			c0-0.6-1.5-1.8-2.1-2.3l0.1-0.1C111.9,19.5,113.9,21,113.6,21.7L113.6,21.7z"/>
	</g>
	<g>
		<path class="st0" d="M115.1,23.2c-0.2-1.2-3.4-1.6-3.4-1.6l0,0l-0.9-1.6l-0.9-0.2l-0.2-0.3h-0.5l-0.6-0.3H108v-0.1h0.6l0.6,0.3
			h0.5l0.2,0.3l0.9,0.2l0,0l0.9,1.6C112,21.6,115,22,115.1,23.2L115.1,23.2z"/>
	</g>
	<g>
		<path class="st0" d="M60.3,19.2L60.3,19.2c-0.1,0-5.8-0.3-6.1-0.3c-0.1,0-0.2,0-0.2-0.1c-0.1-0.2-0.1-0.4-0.1-0.4
			c0-0.1,0-0.2,0.1-0.2c0.1-0.1,0.2-0.1,0.2-0.1l5.9,0.3c0,0,0.3,0,0.4,0.1s0.1,0.1,0.1,0.3c0,0.1,0,0.2-0.1,0.3
			C60.5,19.2,60.3,19.2,60.3,19.2z M54.3,18.2C54.3,18.2,54.2,18.2,54.3,18.2c-0.1,0.1-0.2,0.2-0.2,0.3c0,0,0,0.2,0.1,0.4l0.1,0.1
			c0.3,0,6,0.3,6,0.3s0.1,0,0.2-0.1s0.1-0.1,0.1-0.2c0-0.1,0-0.1-0.1-0.2c-0.1-0.3-0.3-0.2-0.3-0.2L54.3,18.2z"/>
	</g>
	<g>
		<path class="st0" d="M60.2,18.6c-0.7,0-0.9-0.5-0.9-0.5s-0.4-0.8-1.6-0.9c-1.1-0.1-1.4,0.4-1.6,0.6C56,17.9,56,17.9,56,18
			c-0.3,0.3-1,0.3-1,0.3v-0.1c0,0,0.7,0,1-0.3c0,0,0.1-0.1,0.1-0.2c0.2-0.3,0.6-0.7,1.7-0.7c1.3,0.1,1.7,1,1.7,1s0.2,0.5,0.8,0.5
			h0.1v0.1C60.2,18.6,60.2,18.6,60.2,18.6z"/>
	</g>
	<g>
		<path class="st0" d="M57.6,20.4c-0.1,0-0.1,0-0.2,0c-1.1-0.1-1.4-0.5-1.6-0.9c0-0.1-0.1-0.1-0.1-0.2c-0.2-0.3-0.9-0.4-0.9-0.4
			v-0.1c0,0,0.7,0.1,1,0.4c0,0.1,0.1,0.1,0.1,0.2c0.2,0.3,0.5,0.8,1.5,0.8c0.1,0,0.1,0,0.2,0c1.1,0,1.6-0.7,1.6-0.7s0.2-0.4,0.8-0.4
			c0.1,0,0.2,0,0.3,0v0.1c-0.7-0.1-1,0.4-1,0.4C59.2,19.6,58.8,20.4,57.6,20.4z"/>
	</g>
	<g>
		<path class="st0" d="M34.3,18.1L34.3,18.1c-0.1,0-5.8-0.3-6.1-0.3c-0.1,0-0.2,0-0.2-0.1c-0.1-0.2-0.1-0.4-0.1-0.4
			c0-0.1,0-0.2,0.1-0.2c0.1-0.1,0.2-0.1,0.2-0.1l5.9,0.3c0,0,0.3,0,0.4,0.1c0.1,0.1,0.1,0.1,0.1,0.3c0,0.1,0,0.2-0.1,0.3
			C34.5,18.1,34.3,18.1,34.3,18.1z M28.2,17C28.2,17,28.1,17,28.2,17c-0.1,0.1-0.2,0.2-0.2,0.3c0,0,0,0.2,0.1,0.4l0.1,0.1
			c0.3,0,6,0.3,6,0.3s0.1,0,0.2-0.1c0.1-0.1,0.1-0.1,0.1-0.2c0-0.1,0-0.1-0.1-0.2c-0.1-0.1-0.4-0.1-0.4-0.1L28.2,17z"/>
	</g>
	<g>
		<path class="st0" d="M34.1,17.4c-0.7,0-0.9-0.5-0.9-0.5s-0.4-0.8-1.6-0.9c-1.1-0.1-1.4,0.4-1.6,0.6c-0.1,0.1-0.1,0.1-0.1,0.2
			c-0.3,0.3-1,0.3-1,0.3V17c0,0,0.7,0,1-0.3c0,0,0.1-0.1,0.1-0.2c0.2-0.3,0.6-0.7,1.7-0.7c1.3,0.1,1.7,1,1.7,1
			C33.3,16.9,33.5,17.3,34.1,17.4C34.1,17.3,34.2,17.3,34.1,17.4L34.1,17.4C34.2,17.4,34.2,17.4,34.1,17.4z"/>
	</g>
	<g>
		<path class="st0" d="M31.5,19.2c-0.1,0-0.1,0-0.2,0c-1.1-0.1-1.4-0.5-1.6-0.9c0-0.1-0.1-0.1-0.1-0.2c-0.2-0.3-0.9-0.4-0.9-0.4
			v-0.1c0,0,0.7,0.1,1,0.4c0,0.1,0.1,0.1,0.1,0.2c0.2,0.3,0.5,0.8,1.5,0.8c0.1,0,0.1,0,0.2,0c1.1,0,1.6-0.7,1.6-0.7s0.3-0.6,1.1-0.4
			V18c-0.7-0.1-1,0.4-1,0.4C33.2,18.5,32.7,19.2,31.5,19.2z"/>
	</g>
</g>
</svg>
