<svg xmlns="http://www.w3.org/2000/svg" viewBox="0 0 331.62 246.91"><defs><style>.a{fill:gray;}</style></defs><title>icon</title><path class="a" d="M43.4,150.07H17.18c0,2,0,3.78,0,5.55q0,23,0,46a25.77,25.77,0,0,1-.46,6c-1,4.3-4.09,6.42-8.41,6.31-4.12-.1-6.94-2.28-7.84-6.38a27.92,27.92,0,0,1-.42-6Q0,142.31,0,83.07c0-8.62,2.73-12.59,8.59-12.58s8.57,4.12,8.57,12.66c0,16.32,0,32.64,0,49.32H43.4c0-1.74,0-3.5,0-5.27,0-15.16.12-30.33-.07-45.49-.06-4.49,1.31-6.25,6-6.13,10.95.27,21.91.09,33.52.09,0-7.28.15-14.06-.05-20.83-.14-4.54,1.65-6.19,6.21-6.08,10,.25,20,.08,30.3.08V25.33c-8.41,0-16.69,0-25,0a91.47,91.47,0,0,1-10-.29A12.27,12.27,0,0,1,73.6,14.19,12.27,12.27,0,0,1,81.9.91,17.19,17.19,0,0,1,87.29,0Q144,0,200.76,0c5.18,0,9.5,1.77,12.21,6.38,4.84,8.24-.57,18.26-10.44,18.77-8.64.45-17.32.15-26,.18h-6.36v23.5c9.58,0,19-.07,28.49,0,15.13.13,13.66-2.3,13.71,14,0,4.11,0,8.23,0,12.86h36.47c10,0,10,0,10,10,0,8.12,0,16.24,0,24.66h25.62c0-7,0-13.88,0-20.8,0-6.47.26-6.7,6.81-6.71s13.34.16,20-.07c3.31-.11,5.12,1.12,6.59,4,8.74,17.44,12.58,36.11,13.55,55.37,1.41,28-4.2,55-13.86,81.15-1.14,3.09-3,4.47-6.32,4.39-7.16-.17-14.33-.13-21.49,0-3.82.06-5.39-1.5-5.32-5.37.16-8.15,0-16.31,0-24.89H258.84c0,1.8,0,3.57,0,5.34,0,12.66-.13,25.33.07,38,.07,4.49-1.4,6.17-6,6.15-29.49-.16-59,0-88.48-.23a10.65,10.65,0,0,1-7-3.46c-8.6-10-16.94-20.14-25.12-30.45a9.36,9.36,0,0,0-8.32-4c-24.66.19-49.32.1-74,.09-6.25,0-6.52-.26-6.53-6.47q0-23.24,0-46.49C43.4,154.07,43.4,152.27,43.4,150.07Zm109-124.43H137.08v23h15.35Z" transform="translate(0)"/></svg>