<svg xmlns="http://www.w3.org/2000/svg" viewBox="0 0 179.67 179.67"><defs><style>.cls-1{fill:#010101;}</style></defs><title>Question mark</title><g id="Layer_2" data-name="Layer 2"><g id="Question_mark" data-name="Question mark"><path class="cls-1" d="M89.83,0a89.83,89.83,0,1,0,89.83,89.83A89.83,89.83,0,0,0,89.83,0Zm8.48,127.67H79.82V109.53H98.31Zm19-54.07a23,23,0,0,1-3.65,6.24,24.34,24.34,0,0,1-4.83,4.42q-2.65,1.83-5,3.65a23.41,23.41,0,0,0-4.18,4.18A12,12,0,0,0,97.37,98v4.48H81.47v-5.3a23,23,0,0,1,5.65-14.31,29.65,29.65,0,0,1,4.48-4.18Q94,76.9,96,75.14a15.83,15.83,0,0,0,3.24-3.89,9.66,9.66,0,0,0,1.12-5.3q0-5.42-2.65-8a10.09,10.09,0,0,0-7.36-2.59,11.4,11.4,0,0,0-5.48,1.24,10.93,10.93,0,0,0-3.77,3.3,14.3,14.3,0,0,0-2.18,4.83,24,24,0,0,0-.71,5.95H60.86A33.62,33.62,0,0,1,63,59a27.65,27.65,0,0,1,5.77-9.19,26,26,0,0,1,9-6.07,30.27,30.27,0,0,1,11.72-2.18,36.94,36.94,0,0,1,14,2.3,27.17,27.17,0,0,1,9,5.71,20.68,20.68,0,0,1,4.89,7.36,21.18,21.18,0,0,1,1.47,7.36A25.14,25.14,0,0,1,117.34,73.61Z"/></g></g></svg>