<svg xmlns="http://www.w3.org/2000/svg" viewBox="0 0 96.67 96.67">
	<g id="Layer_1-2" data-name="Layer 1">
		<polygon points="84.97 75.16 61.15 51.34 61.15 51.34 58.15 48.34 61.15 45.33 61.15 45.33 84.97 21.51 93.84 30.38 96.67 0 66.29 2.83 75.16 11.7 51.34 35.52 48.34 38.52 21.51 11.7 30.38 2.83 0 0 2.83 30.38 11.7 21.51 38.52 48.34 35.52 51.34 11.7 75.16 2.83 66.29 0 96.67 30.38 93.84 21.51 84.97 45.33 61.15 45.33 61.15 48.34 58.15 51.34 61.15 51.34 61.15 75.16 84.97 66.29 93.84 96.67 96.67 93.84 66.29 84.97 75.16"/>
	</g>
</svg>
